<svg xmlns="http://www.w3.org/2000/svg" xmlns:xlink="http://www.w3.org/1999/xlink" width="50" zoomAndPan="magnify" viewBox="0 0 375 374.999991" height="50" preserveAspectRatio="xMidYMid meet" version="1.0"><defs><g/><clipPath id="940e35746b"><path d="M 54 27.167969 L 321 27.167969 L 321 364.667969 L 54 364.667969 Z M 54 27.167969 " clip-rule="nonzero"/></clipPath></defs><g clip-path="url(#940e35746b)"><path fill="#1038b2" d="M 141.824219 355.738281 C 115.304688 352.105469 86.4375 345.769531 70.515625 325.4375 C 62.179688 314.765625 58.5 301.429688 56.636719 288.273438 C 53.621094 267.054688 54.820312 245.527344 55.972656 224.132812 C 58.941406 169.914062 61.914062 115.652344 68.386719 61.652344 C 69.761719 50.226562 72.644531 36.980469 83.644531 32.019531 C 87.988281 30.070312 93 29.804688 97.832031 29.628906 C 133.929688 28.164062 170.023438 27.457031 206.164062 27.546875 C 228.160156 27.632812 250.820312 28.078125 271.085938 36.09375 C 317.027344 54.257812 315.519531 96.957031 316.582031 136.648438 C 317.914062 185.992188 319.289062 235.382812 320.617188 284.730469 C 321.238281 306.171875 321.371094 329.117188 308.824219 347.011719 C 304.433594 353.347656 298.3125 358.882812 290.773438 361.539062 C 284.609375 363.753906 277.824219 363.890625 271.21875 363.976562 C 227.984375 364.375 184.660156 361.628906 141.824219 355.738281 Z M 141.824219 355.738281 " fill-opacity="1" fill-rule="nonzero"/></g><g fill="#ff00ff" fill-opacity="1"><g transform="translate(119.604026, 280.968074)"><g><path d="M 44.953125 -0.542969 C 61.742188 -1.355469 78.535156 -1.082031 95.054688 -1.894531 C 108.863281 -2.707031 119.15625 -4.605469 124.570312 -18.144531 C 127.820312 -27.082031 129.714844 -43.328125 120.78125 -50.097656 C 110.761719 -57.410156 95.054688 -54.160156 83.679688 -54.703125 C 73.390625 -55.246094 46.851562 -63.640625 62.285156 -77.992188 C 71.492188 -86.660156 85.847656 -76.367188 96.679688 -79.347656 C 108.59375 -82.867188 111.300781 -96.40625 109.949219 -107.511719 C 109.136719 -116.988281 105.886719 -122.40625 96.679688 -125.925781 C 87.742188 -129.175781 69.054688 -123.21875 62.015625 -128.363281 C 52.535156 -135.132812 61.203125 -147.859375 67.972656 -149.214844 C 78.261719 -151.652344 89.367188 -144.609375 100.199219 -148.945312 C 109.675781 -152.734375 114.550781 -161.671875 113.199219 -171.960938 C 111.300781 -186.316406 99.386719 -188.753906 86.929688 -190.648438 C 68.515625 -193.355469 19.769531 -202.5625 11.644531 -179.816406 C 8.125 -170.066406 10.019531 -156.527344 9.476562 -146.507812 C 8.9375 -128.363281 8.125 -110.21875 7.3125 -92.074219 C 6.5 -76.636719 5.957031 -61.203125 5.144531 -45.765625 C 4.605469 -33.582031 1.082031 -15.976562 10.832031 -6.5 C 19.769531 2.167969 34.121094 -0.269531 44.953125 -0.542969 Z M 44.953125 -0.542969 "/></g></g></g><g fill="#00ffff" fill-opacity="1"><g transform="translate(124.038957, 290.478806)"><g><path d="M 44.953125 -0.542969 C 61.742188 -1.355469 78.535156 -1.082031 95.054688 -1.894531 C 108.863281 -2.707031 119.15625 -4.605469 124.570312 -18.144531 C 127.820312 -27.082031 129.714844 -43.328125 120.78125 -50.097656 C 110.761719 -57.410156 95.054688 -54.160156 83.679688 -54.703125 C 73.390625 -55.246094 46.851562 -63.640625 62.285156 -77.992188 C 71.492188 -86.660156 85.847656 -76.367188 96.679688 -79.347656 C 108.59375 -82.867188 111.300781 -96.40625 109.949219 -107.511719 C 109.136719 -116.988281 105.886719 -122.40625 96.679688 -125.925781 C 87.742188 -129.175781 69.054688 -123.21875 62.015625 -128.363281 C 52.535156 -135.132812 61.203125 -147.859375 67.972656 -149.214844 C 78.261719 -151.652344 89.367188 -144.609375 100.199219 -148.945312 C 109.675781 -152.734375 114.550781 -161.671875 113.199219 -171.960938 C 111.300781 -186.316406 99.386719 -188.753906 86.929688 -190.648438 C 68.515625 -193.355469 19.769531 -202.5625 11.644531 -179.816406 C 8.125 -170.066406 10.019531 -156.527344 9.476562 -146.507812 C 8.9375 -128.363281 8.125 -110.21875 7.3125 -92.074219 C 6.5 -76.636719 5.957031 -61.203125 5.144531 -45.765625 C 4.605469 -33.582031 1.082031 -15.976562 10.832031 -6.5 C 19.769531 2.167969 34.121094 -0.269531 44.953125 -0.542969 Z M 44.953125 -0.542969 "/></g></g></g><g fill="#f3f5f9" fill-opacity="1"><g transform="translate(121.821492, 285.723439)"><g><path d="M 44.953125 -0.542969 C 61.742188 -1.355469 78.535156 -1.082031 95.054688 -1.894531 C 108.863281 -2.707031 119.15625 -4.605469 124.570312 -18.144531 C 127.820312 -27.082031 129.714844 -43.328125 120.78125 -50.097656 C 110.761719 -57.410156 95.054688 -54.160156 83.679688 -54.703125 C 73.390625 -55.246094 46.851562 -63.640625 62.285156 -77.992188 C 71.492188 -86.660156 85.847656 -76.367188 96.679688 -79.347656 C 108.59375 -82.867188 111.300781 -96.40625 109.949219 -107.511719 C 109.136719 -116.988281 105.886719 -122.40625 96.679688 -125.925781 C 87.742188 -129.175781 69.054688 -123.21875 62.015625 -128.363281 C 52.535156 -135.132812 61.203125 -147.859375 67.972656 -149.214844 C 78.261719 -151.652344 89.367188 -144.609375 100.199219 -148.945312 C 109.675781 -152.734375 114.550781 -161.671875 113.199219 -171.960938 C 111.300781 -186.316406 99.386719 -188.753906 86.929688 -190.648438 C 68.515625 -193.355469 19.769531 -202.5625 11.644531 -179.816406 C 8.125 -170.066406 10.019531 -156.527344 9.476562 -146.507812 C 8.9375 -128.363281 8.125 -110.21875 7.3125 -92.074219 C 6.5 -76.636719 5.957031 -61.203125 5.144531 -45.765625 C 4.605469 -33.582031 1.082031 -15.976562 10.832031 -6.5 C 19.769531 2.167969 34.121094 -0.269531 44.953125 -0.542969 Z M 44.953125 -0.542969 "/></g></g></g></svg>